<?xml version="1.0" encoding="utf-8"?>
<!-- Generator: Adobe Illustrator 25.2.1, SVG Export Plug-In . SVG Version: 6.00 Build 0)  -->
<svg version="1.1" id="Layer_1" xmlns="http://www.w3.org/2000/svg" xmlns:xlink="http://www.w3.org/1999/xlink" x="0px" y="0px"
	 viewBox="0 0 623.2 399.1" style="enable-background:new 0 0 623.2 399.1;" xml:space="preserve">
<style type="text/css">
	.st0{fill:#EC2854;stroke:#EC2854;stroke-miterlimit:10;}
	.st1{fill:none;}
	.st2{fill:#FFFFFF;}
	.st3{font-family:'Arial';}
	.st4{font-size:316px;}
</style>
<path class="st0" d="M264.4,102.8c-23,9.4-73,46.1-50.1,79.3c10.1,14.6,27.6,24.9,43.6,30c14.8,4.6,33.1-1.1,46.7,5
	c-2.9,6.9-13.2,32.1-21.9,30.2c-16.3-3.4-33-0.5-45.8,11.5c-26.3-35.7-63.7-50.2-104.9-40.3c30.5-36.9,23-75.5-9.1-110.6
	c-19.4-21.3-66.5-51.5-96.7-39.2C101.8,38,193.9,61.3,264.4,102.8C252.2,107.8,259.4,99.9,264.4,102.8z M358.9,102.8
	c23,9.4,73,46.1,50.1,79.3c-10.1,14.6-27.6,24.9-43.6,30c-14.8,4.6-33.1-1.1-46.7,5c2.9,6.9,13.2,32.1,21.9,30.2
	c16.3-3.4,33-0.5,45.8,11.5c26.3-35.7,63.7-50.2,104.9-40.3c-30.6-36.9-23.1-75.5,9-110.6c19.4-21.3,66.5-51.5,96.7-39.2
	C521.5,38,429.3,61.3,358.9,102.8C371.1,107.8,363.9,99.9,358.9,102.8z"/>
<path class="st1" d="M522.1,0h101.1v56.2H522.1V0z"/>
<text transform="matrix(1.19 0 0 1 261.9445 344.5085)" class="st2 st3 st4">f</text>
</svg>
